<?xml version="1.0" encoding="utf-8"?>
<!-- Generator: Adobe Illustrator 27.5.0, SVG Export Plug-In . SVG Version: 6.00 Build 0)  -->
<svg version="1.1" xmlns="http://www.w3.org/2000/svg" xmlns:xlink="http://www.w3.org/1999/xlink" x="0px" y="0px"
	 viewBox="0 0 3710 3710" style="enable-background:new 0 0 3710 3710;" xml:space="preserve">
<g id="Background">
	<g>
		<g>
			<rect style="fill:#FFFFFF;" width="3710" height="3710"/>
		</g>
	</g>
</g>
<g id="Illustration">
	<g>
		<path style="fill:#F4F7FA;" d="M3221.443,1650.967c-76.319-499.542-389.225-1113.263-1007.406-1177.491
			c0,0-469.352-57.088-932.03,29.437c-274.599,51.352-515.382,204.217-667.74,423.922
			c-152.36,219.706-203.251,487.607-141.487,743.016c40.116,165.89,67.223,337.577,59.784,508.037
			c-9.381,214.979-27.049,441.016,67.986,641.492c139.247,293.726,479.001,380.248,775.457,407.844
			c109.246,10.168,218.897,14.268,328.24,22.913c209.76,16.584,444.993-10.253,647.162-64.864
			C3381.709,2906.955,3297.762,2150.507,3221.443,1650.967z"/>
		<linearGradient id="SVGID_1_" gradientUnits="userSpaceOnUse" x1="736.8774" y1="1471.0289" x2="2383.2786" y2="1471.0289">
			<stop  offset="0.0036" style="stop-color:#E38DDD"/>
			<stop  offset="1" style="stop-color:#9571F6"/>
		</linearGradient>
		<path style="opacity:0.3;fill:url(#SVGID_1_);" d="M2013.125,2151.423l-38.698-82.346c32.645-24.653,62.862-51.848,90.232-81.448
			l72.973,51.622c19.898,14.076,46.923,8.714,60.381-11.975l84.3-129.594c13.503-20.757,8.34-49.085-11.55-63.274l-73.688-52.562
			c16.185-38.073,29.241-77.587,38.939-118.127l89.129,7.19c24.025,1.938,44.947-16.935,46.743-42.172l11.266-158.273
			c1.806-25.382-16.268-47.597-40.384-49.601l-89.586-7.441c-4.065-41.505-11.752-83.056-22.879-124.262l81.388-41.005
			c21.85-11.008,31.019-38.728,20.47-61.932l-66.189-145.59c-10.62-23.359-37.03-33.346-58.98-22.287l-81.76,41.192
			c-23.911-35.265-50.316-68.007-79.042-97.813l50.801-79.214c13.704-21.368,8.353-50.73-11.972-65.584l-127.476-93.16
			c-20.444-14.941-48.15-9.637-61.862,11.85l-50.76,79.547c-37.264-18.144-75.938-32.843-115.555-43.998l5.822-96.571
			c1.578-26.164-17.16-49.196-41.865-51.42l-154.756-13.943c-24.79-2.235-46.095,17.239-47.578,43.472l-5.415,95.854
			c-40.488,3.779-80.911,11.553-120.883,23.053l-40.889-87.009c-11.203-23.837-38.324-34.094-60.568-22.888l-139.103,70.082
			c-22.244,11.207-31.103,39.591-19.798,63.377l40.937,86.132c-33.682,25.363-64.73,53.467-92.8,84.068l-75.372-53.765
			c-20.94-14.937-48.918-9.58-62.467,11.97l-84.587,134.527c-13.504,21.475-7.452,50.898,13.494,65.714l75.044,53.085
			c-16.249,39.5-29.056,80.494-38.36,122.464l-88.86-7.383c-24.841-2.064-45.94,17.221-47.115,43.054l-7.323,161.073
			c-1.168,25.682,17.956,48.106,42.702,50.102l87.853,7.088c5.046,42.427,13.927,84.777,26.345,126.633l-78.187,39.392
			c-21.95,11.058-30.578,38.698-19.279,61.715l70.418,143.459c11.224,22.865,38.028,32.46,59.878,21.452l77.832-39.213
			c25.029,34.992,52.496,67.343,82.246,96.58l-47.351,74.203c-13.309,20.859-7.472,49.24,13.017,63.389l127.764,88.228
			c20.372,14.068,47.657,8.654,60.96-12.09l47.688-74.359c37.415,17.148,76.11,30.934,115.662,41.112l-5.063,89.601
			c-1.408,24.919,17.042,46.553,41.197,48.337l150.813,11.141c24.077,1.778,44.801-16.916,46.299-41.772l5.413-89.791
			c39.584-4.285,79.076-12.337,118.099-24.025l38.742,81.514c10.654,22.416,36.768,31.765,58.335,20.899l134.872-67.95
			C2014.75,2200.893,2023.683,2173.887,2013.125,2151.423z M2095.089,1217.761c143.121,309.248,22.444,676.611-268.343,823.113
			c-290.786,146.502-645.524,18.66-793.566-288.109c-149.425-309.636-31.85-683.563,263.88-832.556
			C1592.789,771.217,1950.63,905.623,2095.089,1217.761z"/>
		<g>
			
				<linearGradient id="SVGID_00000101099818242898237120000004313832172189871530_" gradientUnits="userSpaceOnUse" x1="1448.2664" y1="2105.4954" x2="1629.4292" y2="1537.8508">
				<stop  offset="0" style="stop-color:#311944"/>
				<stop  offset="1" style="stop-color:#A03976"/>
			</linearGradient>
			<path style="fill:url(#SVGID_00000101099818242898237120000004313832172189871530_);" d="M1442.621,1905.785
				c-24.565,10.737-57.828,25.504-102.664,24.156c-28.548-0.858-44.143-1.326-54.352-11.072
				c-34-32.457,25.158-138.852,144.862-350.318c38.282-67.628,63.449-108.352,113.948-127.471
				c57.334-21.707,112.473-2.372,132.723,4.728c14.288,5.01,130.329,47.794,151.983,158.022
				c17.696,90.077-34.756,188.97-130.847,235.524c-5.704-8.052-11.407-16.104-17.111-24.156
				c8.793-14.154,25.687-45.714,26.169-88.573c0.517-45.935-17.869-100.304-33.215-99.645
				c-24.461,1.051,4.358,139.949-79.515,214.387C1581.029,1853.417,1589.51,1841.582,1442.621,1905.785z"/>
			
				<linearGradient id="SVGID_00000183954166319479479250000012183731579318949286_" gradientUnits="userSpaceOnUse" x1="1441.5006" y1="2103.3359" x2="1622.6632" y2="1535.6921">
				<stop  offset="0" style="stop-color:#311944"/>
				<stop  offset="1" style="stop-color:#A03976"/>
			</linearGradient>
			<path style="opacity:0.3;fill:url(#SVGID_00000183954166319479479250000012183731579318949286_);" d="M1785.842,1670.261
				c-5.273-36.784-21.671-151.169-92.599-179.159c-55.615-21.947-110.621,22.692-136.886-5.032
				c-10.627-11.218-11.503-28.956-8.958-46.054c-0.995,0.353-1.988,0.688-2.984,1.066c-50.5,19.119-75.666,59.843-113.948,127.471
				c-119.704,211.465-178.862,317.861-144.862,350.318c10.208,9.745,25.804,10.214,54.352,11.072
				c44.836,1.347,78.099-13.419,102.664-24.156c146.889-64.204,138.408-52.369,151.983-64.417
				c83.873-74.438,55.053-213.336,79.515-214.387c15.346-0.66,33.732,53.709,33.215,99.645
				c-0.483,42.859-17.376,74.419-26.169,88.573c5.704,8.052,11.407,16.104,17.111,24.156c35.625-17.26,65.234-41.725,87.512-70.256
				C1789.919,1739.935,1791.041,1706.532,1785.842,1670.261z"/>
			
				<linearGradient id="SVGID_00000029031440758260258540000016070558178793010086_" gradientUnits="userSpaceOnUse" x1="1710.4084" y1="2207.7668" x2="2740.2229" y2="2207.7668">
				<stop  offset="0.494" style="stop-color:#EBEFF2"/>
				<stop  offset="1" style="stop-color:#FFFFFF"/>
			</linearGradient>
			<polygon style="fill:url(#SVGID_00000029031440758260258540000016070558178793010086_);" points="1710.408,2549.625 
				2594.721,2413.942 2740.223,1865.909 1784.771,1935.033 			"/>
			<polygon style="fill:#D8DEE8;" points="1784.777,1935.025 1710.42,2548.521 1698.967,2546.283 1155.463,2439.289 
				1053.489,1899.842 1047.471,1867.96 			"/>
			<g>
				<g>
					<polygon style="fill:#FFFFFF;" points="1047.487,1849.194 1990.688,1776.563 2740.223,1834.451 1791.186,1914.322 					"/>
					<polygon style="fill:#B7C0CE;" points="1791.186,1914.324 1047.487,1849.193 1047.487,1880.652 1791.186,1945.781 
						2740.223,1865.909 2740.223,1834.45 					"/>
				</g>
			</g>
			<path style="opacity:0.4;fill:#D8DEE8;" d="M1698.967,2546.283l-543.504-106.995l-101.974-539.447
				c26.93,17.334,64.588,35.528,113.942,45.95c115.215,24.315,244.187,144.689,237.308,282.259
				c-6.878,137.57,104.897,10.318,218.393,190.878C1657.8,2474.094,1682.046,2515.434,1698.967,2546.283z"/>
			
				<linearGradient id="SVGID_00000085231831665471892960000003307898344280401537_" gradientUnits="userSpaceOnUse" x1="1298.5486" y1="1945.6354" x2="1450.6802" y2="1468.9554">
				<stop  offset="0" style="stop-color:#311944"/>
				<stop  offset="1" style="stop-color:#A03976"/>
			</linearGradient>
			<path style="fill:url(#SVGID_00000085231831665471892960000003307898344280401537_);" d="M1410.902,1819.289l16.196-6.7
				c0,0-90.576-91.695,79.314-278.673c0,0,83.686-107.22,42.052-97.913c-53.936,12.056-142.137,37.842-223.526,148.927
				C1243.548,1696.014,1290.229,1793.226,1410.902,1819.289z"/>
			
				<linearGradient id="SVGID_00000156566497604616557340000015934669293672968614_" gradientUnits="userSpaceOnUse" x1="1550.0688" y1="1426.0438" x2="1670.8466" y2="1426.0438">
				<stop  offset="0" style="stop-color:#FFC444"/>
				<stop  offset="0.9964" style="stop-color:#F36F56"/>
			</linearGradient>
			<path style="fill:url(#SVGID_00000156566497604616557340000015934669293672968614_);" d="M1651.907,1443.835
				c-5.989-4.702-7.235-13.276-2.832-19.488l12.964-18.291l-13.523-24.997l-47.587,35.622
				c-12.633,9.457-27.378,15.697-42.963,18.181l-7.897,1.259c0,0,45.839,24.871,69.343,32.88
				c23.505,8.01,51.434-10.299,51.434-10.299L1651.907,1443.835z"/>
			<g>
				<g>
					
						<linearGradient id="SVGID_00000085220743630414637360000002956004471530959762_" gradientUnits="userSpaceOnUse" x1="1112.2534" y1="1527.7642" x2="1096.6638" y2="1549.9984" gradientTransform="matrix(0.9799 -0.1993 0.1993 0.9799 333.3824 65.2842)">
						<stop  offset="0" style="stop-color:#AA80F9"/>
						<stop  offset="0.9964" style="stop-color:#6165D7"/>
					</linearGradient>
					<path style="fill:url(#SVGID_00000085220743630414637360000002956004471530959762_);" d="M1706.759,1331.991l3.089-0.628
						c12.718-2.586,25.856,9.231,29.347,26.395l0.196,0.964c3.49,17.164-3.99,33.174-16.707,35.76l-3.089,0.628
						c-6.415,1.305-14.49-11.767-18.034-29.197C1698.016,1348.483,1700.344,1333.295,1706.759,1331.991z"/>
					
						<linearGradient id="SVGID_00000155864205216601563720000015405562367010981286_" gradientUnits="userSpaceOnUse" x1="1083.8921" y1="1562.9896" x2="1114.0902" y2="1500.9155" gradientTransform="matrix(0.9799 -0.1993 0.1993 0.9799 333.3824 65.2842)">
						<stop  offset="0" style="stop-color:#AA80F9"/>
						<stop  offset="0.9964" style="stop-color:#6165D7"/>
					</linearGradient>
					<path style="fill:url(#SVGID_00000155864205216601563720000015405562367010981286_);" d="M1694.313,1367.386
						c3.88,19.078,14.457,33.032,23.934,31.104c9.477-1.927,14.265-19.006,10.385-38.084c-3.88-19.078-14.958-32.93-24.435-31.003
						C1694.72,1331.332,1690.433,1348.309,1694.313,1367.386z"/>
					
						<linearGradient id="SVGID_00000106147481010376888200000010702092875674421399_" gradientUnits="userSpaceOnUse" x1="1105.9382" y1="1537.3828" x2="1111.064" y2="1534.1871" gradientTransform="matrix(0.9799 -0.1993 0.1993 0.9799 333.3824 65.2842)">
						<stop  offset="0" style="stop-color:#444B8C"/>
						<stop  offset="0.9964" style="stop-color:#3E4177"/>
					</linearGradient>
					<polygon style="fill:url(#SVGID_00000106147481010376888200000010702092875674421399_);" points="1718.741,1398.39 
						1715.123,1399.126 1701.074,1330.04 1704.692,1329.304 					"/>
					
						<linearGradient id="SVGID_00000023998680254201852410000002912073192915948448_" gradientUnits="userSpaceOnUse" x1="1110.6104" y1="1520.7483" x2="1094.9357" y2="1539.3195" gradientTransform="matrix(0.9799 -0.1993 0.1993 0.9799 333.3824 65.2842)">
						<stop  offset="0" style="stop-color:#AA80F9"/>
						<stop  offset="0.9964" style="stop-color:#6165D7"/>
					</linearGradient>
					<path style="fill:url(#SVGID_00000023998680254201852410000002912073192915948448_);" d="M1690.939,1368.072
						c3.88,19.078,14.707,32.981,24.184,31.053c9.477-1.927,14.014-18.955,10.135-38.032c-3.88-19.078-14.707-32.981-24.184-31.053
						C1691.597,1331.967,1687.059,1348.995,1690.939,1368.072z"/>
					
						<linearGradient id="SVGID_00000001649380759516952380000014503033153074584968_" gradientUnits="userSpaceOnUse" x1="1078.6949" y1="1547.2804" x2="1097.7374" y2="1547.2804" gradientTransform="matrix(0.9799 -0.1993 0.1993 0.9799 333.3824 65.2842)">
						<stop  offset="0.0036" style="stop-color:#6165D7"/>
						<stop  offset="1" style="stop-color:#AA80F9"/>
					</linearGradient>
					<path style="opacity:0.6;fill:url(#SVGID_00000001649380759516952380000014503033153074584968_);" d="M1698.769,1366.48
						c2.109,10.373,7.997,17.932,13.149,16.885c5.153-1.048,7.62-10.306,5.51-20.679s-7.997-17.933-13.149-16.885
						C1699.126,1346.849,1696.659,1356.107,1698.769,1366.48z"/>
				</g>
				<g>
					
						<linearGradient id="SVGID_00000000181437351054957650000001819491180000857251_" gradientUnits="userSpaceOnUse" x1="1702.5952" y1="1484.1392" x2="1636.9497" y2="1317.4113">
						<stop  offset="0" style="stop-color:#311944"/>
						<stop  offset="1" style="stop-color:#6B3976"/>
					</linearGradient>
					<path style="fill:url(#SVGID_00000000181437351054957650000001819491180000857251_);" d="M1668.828,1408.435
						c-4.56,1.279-14.299,3.634-27.175,3.434c-11.84-0.184-33.417-0.722-47.443-15.829c-2.375-2.558-8.077-8.864-9.751-18.742
						c-0.483-2.844-2.237-13.192,3.523-21.137c6.216-8.574,14.07-4.539,21.64-12.078c10.773-10.73,2.129-26.138,11.072-32.208
						c7.88-5.349,15.856,5.758,33.215,2.013c9.442-2.037,9.403-5.825,22.143-9.059c8.462-2.148,19.111-4.851,24.767,0.325
						c5.459,4.996,0.441,12.001,5.76,21.992c5.35,10.051,13.139,8.057,17.067,15.555c7.276,13.887-9.457,39.768-27.398,52.938
						C1685.218,1403.735,1673.592,1407.099,1668.828,1408.435z"/>
					
						<linearGradient id="SVGID_00000061442978368686654870000017740879809471322814_" gradientUnits="userSpaceOnUse" x1="5448.2896" y1="-416.4831" x2="5445.3774" y2="-181.8365" gradientTransform="matrix(0.9971 -0.0753 0.0753 0.9971 -3734.9658 2194.3374)">
						<stop  offset="0" style="stop-color:#FFC444"/>
						<stop  offset="0.9964" style="stop-color:#F36F56"/>
					</linearGradient>
					<path style="fill:url(#SVGID_00000061442978368686654870000017740879809471322814_);" d="M1641.455,1409.601
						c0,0,14.95,22.505,45.293,19.353c27.113-2.818,31.768-59.287,14.633-70.513c-5.721-3.746-17.264-4.925-26.702-2.096
						c-5.578,1.673-7.49,3.89-16.657,6.462c-8.463,2.377-10.835,1.61-13.408,3.699c-3.22,2.616-5.634,8.799-0.525,25.07
						c-5.125-4.641-11.329-6.245-15.77-4.13c-0.709,0.339-2.593,1.593-3.669,3.419
						C1620.759,1397.476,1627.02,1405.443,1641.455,1409.601z"/>
				</g>
				<g>
					
						<linearGradient id="SVGID_00000165949590316806800760000017348361511905980351_" gradientUnits="userSpaceOnUse" x1="1027.3177" y1="1274.7979" x2="1056.5957" y2="1214.6154" gradientTransform="matrix(1.0146 -0.2063 0.2187 1.0756 341.89 209.5301)">
						<stop  offset="0" style="stop-color:#AA80F9"/>
						<stop  offset="0.9964" style="stop-color:#6165D7"/>
					</linearGradient>
					<path style="fill:url(#SVGID_00000165949590316806800760000017348361511905980351_);" d="M1630.769,1358.425l-3.936,0.761
						l-2.38-12.16c-4.104-20.968,6.943-41.059,25.148-45.737l19.488-5.008c10.19-2.619,20.807-0.435,29.902,6.148
						c9.095,6.583,15.416,16.661,17.798,28.378l1.306,6.423l-4.623-2.616l-0.612-3.009c-2.132-10.486-7.789-19.505-15.928-25.396
						c-8.14-5.891-17.645-7.843-26.76-5.502l-19.489,5.008c-16.14,4.148-25.933,21.959-22.295,40.549L1630.769,1358.425z"/>
					<g>
						
							<linearGradient id="SVGID_00000166659075922336166400000001123774649731532447_" gradientUnits="userSpaceOnUse" x1="1047.764" y1="1200.0116" x2="1041.4551" y2="1220.952" gradientTransform="matrix(1.0146 -0.2063 0.2187 1.0756 341.89 209.5301)">
							<stop  offset="0" style="stop-color:#AA80F9"/>
							<stop  offset="0.9964" style="stop-color:#6165D7"/>
						</linearGradient>
						<path style="fill:url(#SVGID_00000166659075922336166400000001123774649731532447_);" d="M1701.402,1312.632
							c-1.597,0.325-3.339-0.085-4.795-1.295c-7.43-6.172-16.672-8.43-25.35-6.201l-19.489,5.008
							c-6.806,1.749-12.555,6.351-16.188,12.958c-1.717,3.124-5.432,3.96-8.298,1.867c-2.865-2.093-3.796-6.321-2.078-9.444
							c5.232-9.515,13.512-16.143,23.314-18.662l19.489-5.008c12.148-3.123,25.071,0.039,35.463,8.671
							c2.751,2.285,3.446,6.558,1.551,9.543C1704.127,1311.474,1702.821,1312.343,1701.402,1312.632z"/>
						
							<linearGradient id="SVGID_00000129166839575612009160000003236301841976728249_" gradientUnits="userSpaceOnUse" x1="1047.7938" y1="1199.9127" x2="1041.4692" y2="1220.9048" gradientTransform="matrix(1.0146 -0.2063 0.2187 1.0756 341.89 209.5301)">
							<stop  offset="0" style="stop-color:#AA80F9"/>
							<stop  offset="0.9964" style="stop-color:#6165D7"/>
						</linearGradient>
						<path style="opacity:0.3;fill:url(#SVGID_00000129166839575612009160000003236301841976728249_);" d="M1690.329,1300.695
							c-15.459-1.846-16.432-6.234-24.071-5.03c-14.282,2.252-16.923,18.545-31.114,19.353c-3.327,0.19-6.331-0.527-8.785-1.466
							c-0.4,0.643-0.786,1.3-1.156,1.972c-1.718,3.124-0.787,7.352,2.078,9.444c2.866,2.092,6.581,1.256,8.298-1.867
							c3.633-6.607,9.382-11.209,16.188-12.958l19.489-5.008c8.679-2.229,17.92,0.029,25.35,6.201
							c1.457,1.21,3.198,1.62,4.795,1.295c1.419-0.289,2.726-1.158,3.617-2.563c1.718-2.706,1.308-6.469-0.833-8.852
							C1700.223,1301.391,1695.541,1301.318,1690.329,1300.695z"/>
					</g>
				</g>
				<g>
					<g>
						
							<linearGradient id="SVGID_00000079468651428366399490000007336368311291730560_" gradientUnits="userSpaceOnUse" x1="994.7831" y1="1546.6976" x2="1030.1915" y2="1546.6976" gradientTransform="matrix(0.9799 -0.1993 0.1993 0.9799 333.3824 65.2842)">
							<stop  offset="0" style="stop-color:#AA80F9"/>
							<stop  offset="0.9964" style="stop-color:#6165D7"/>
						</linearGradient>
						<path style="fill:url(#SVGID_00000079468651428366399490000007336368311291730560_);" d="M1651.124,1375.576
							c3.922,19.288-0.665,36.504-10.246,38.452c-9.581,1.948-20.528-12.108-24.451-31.396
							c-3.922-19.288,0.665-36.503,10.246-38.452C1636.255,1342.232,1647.202,1356.288,1651.124,1375.576z"/>
						
							<linearGradient id="SVGID_00000150100344151280508230000012855647384324157068_" gradientUnits="userSpaceOnUse" x1="998.2015" y1="1552.9838" x2="969.7791" y2="1569.5205" gradientTransform="matrix(0.9799 -0.1993 0.1993 0.9799 333.3824 65.2842)">
							<stop  offset="0" style="stop-color:#AA80F9"/>
							<stop  offset="0.9964" style="stop-color:#6165D7"/>
						</linearGradient>
						<path style="fill:url(#SVGID_00000150100344151280508230000012855647384324157068_);" d="M1647.713,1376.27
							c3.922,19.288-0.665,36.504-10.246,38.452c-9.581,1.948-20.528-12.108-24.451-31.396
							c-3.922-19.288,0.665-36.503,10.246-38.452C1632.844,1342.926,1643.79,1356.982,1647.713,1376.27z"/>
						
							<linearGradient id="SVGID_00000009557952995401077610000011328605330575419068_" gradientUnits="userSpaceOnUse" x1="978.0018" y1="1546.6973" x2="1016.9322" y2="1546.6973" gradientTransform="matrix(0.9799 -0.1993 0.1993 0.9799 333.3824 65.2842)">
							<stop  offset="0" style="stop-color:#AA80F9"/>
							<stop  offset="0.9964" style="stop-color:#6165D7"/>
						</linearGradient>
						<path style="fill:url(#SVGID_00000009557952995401077610000011328605330575419068_);" d="M1619.898,1348.7l-3.123,0.635
							c-12.858,2.615-20.42,18.802-16.891,36.155l0.198,0.974c3.529,17.353,16.813,29.301,29.671,26.686l3.123-0.635
							c6.486-1.319,8.839-16.673,5.256-34.296C1634.547,1360.597,1626.384,1347.381,1619.898,1348.7z"/>
					</g>
					
						<linearGradient id="SVGID_00000162324268360666444550000013906095551918603955_" gradientUnits="userSpaceOnUse" x1="978.002" y1="1546.1973" x2="1001.4127" y2="1546.1973" gradientTransform="matrix(0.9799 -0.1993 0.1993 0.9799 333.3824 65.2842)">
						<stop  offset="0" style="stop-color:#AA80F9"/>
						<stop  offset="0.9964" style="stop-color:#6165D7"/>
					</linearGradient>
					<path style="fill:url(#SVGID_00000162324268360666444550000013906095551918603955_);" d="M1622.824,1380.822
						c2.587,12.72-0.452,24.075-6.786,25.364c-6.335,1.288-13.567-7.979-16.154-20.698c-2.587-12.719,0.452-24.075,6.787-25.363
						C1613.005,1358.835,1620.237,1368.102,1622.824,1380.822z"/>
				</g>
			</g>
			<g>
				
					<linearGradient id="SVGID_00000011023459277507191630000011953727550668972944_" gradientUnits="userSpaceOnUse" x1="1442.5717" y1="1835.6311" x2="1937.824" y2="1835.6311">
					<stop  offset="0" style="stop-color:#AA80F9"/>
					<stop  offset="0.9964" style="stop-color:#6165D7"/>
				</linearGradient>
				<polygon style="fill:url(#SVGID_00000011023459277507191630000011953727550668972944_);" points="1442.572,1830.387 
					1446.011,1841.134 1583.461,1867.96 1937.824,1814.48 1937.824,1803.302 				"/>
				
					<linearGradient id="SVGID_00000101809714075515823550000009863724422018476163_" gradientUnits="userSpaceOnUse" x1="1442.5717" y1="1820.3435" x2="1938.0648" y2="1820.3435">
					<stop  offset="0" style="stop-color:#40447E"/>
					<stop  offset="0.9964" style="stop-color:#3C3B6B"/>
				</linearGradient>
				<polygon style="fill:url(#SVGID_00000101809714075515823550000009863724422018476163_);" points="1442.572,1830.387 
					1581.861,1856.301 1938.065,1804.162 1876.777,1784.387 				"/>
			</g>
			<g>
				<g>
					
						<linearGradient id="SVGID_00000026152844357945277440000004121136821258383784_" gradientUnits="userSpaceOnUse" x1="-424.7366" y1="1640.744" x2="54.8877" y2="1640.744" gradientTransform="matrix(-1 0 0 1 1755.9615 0)">
						<stop  offset="0" style="stop-color:#AA80F9"/>
						<stop  offset="0.9964" style="stop-color:#6165D7"/>
					</linearGradient>
					<path style="fill:url(#SVGID_00000026152844357945277440000004121136821258383784_);" d="M1703.301,1816.847l-2.227-344.015
						c-0.038-5.769,4.905-9.919,11.912-10.013l448.986-5.985c3.57-0.048,10.399,2.979,13.104,5.563
						c2.698,2.578,5.748,3.067,5.618,6.373l-15.455,284.046c-0.245,4.498-3.906,8.115-8.947,8.833l-441.918,63.007
						L1703.301,1816.847z"/>
					
						<linearGradient id="SVGID_00000007408459748574057370000006666890019692583356_" gradientUnits="userSpaceOnUse" x1="-62.618" y1="1449.1644" x2="-369.302" y2="1915.2037" gradientTransform="matrix(-1 0 0 1 1755.9615 0)">
						<stop  offset="0" style="stop-color:#AA80F9"/>
						<stop  offset="0.9964" style="stop-color:#6165D7"/>
					</linearGradient>
					<path style="fill:url(#SVGID_00000007408459748574057370000006666890019692583356_);" d="M1714.375,1824.655l-0.743-344.838
						c-0.013-5.729,4.898-9.854,11.843-9.958l445.924-6.743c3.547-0.054,7.165,1.41,9.855,3.982c2.683,2.565,4.16,5.963,4.029,9.258
						l-11.249,281.091c-0.184,4.597-3.941,8.304-9.095,8.971L1714.375,1824.655z"/>
					
						<linearGradient id="SVGID_00000121255131614612209960000001166197816828500668_" gradientUnits="userSpaceOnUse" x1="-421.3508" y1="1750.1031" x2="41.746" y2="1750.1031" gradientTransform="matrix(-1 0 0 1 1755.9615 0)">
						<stop  offset="0" style="stop-color:#AA80F9"/>
						<stop  offset="0.9964" style="stop-color:#6165D7"/>
					</linearGradient>
					<path style="opacity:0.3;fill:url(#SVGID_00000121255131614612209960000001166197816828500668_);" d="M1714.375,1824.655
						l450.564-58.237c5.154-0.667,8.912-4.374,9.095-8.971l3.278-81.895c-123.355,54.914-292.261,55.295-463.097,74.964
						L1714.375,1824.655z"/>
					<path style="fill:#FFFFFF;" d="M1957.64,1871.773l-16.029,4.852c0,0-83.3-25.38-87.921-26.79
						c-0.73-0.222-4.953-2.758-2.475-3.685c14.148-5.294,98.245-10.175,98.245-10.175l61.133,6.276L1957.64,1871.773z"/>
					
						<linearGradient id="SVGID_00000142873157742819913880000002064383006982512279_" gradientUnits="userSpaceOnUse" x1="-117.6653" y1="1807.1692" x2="-268.2529" y2="1897.522" gradientTransform="matrix(-1 0 0 1 1755.9615 0)">
						<stop  offset="0" style="stop-color:#AA80F9"/>
						<stop  offset="0.9964" style="stop-color:#6165D7"/>
					</linearGradient>
					<path style="fill:url(#SVGID_00000142873157742819913880000002064383006982512279_);" d="M1956.499,1867.889l-16.206,5.166
						c0,0-84.4-25.489-89.077-26.904c-4.637-1.403,96.066-11.7,96.066-11.7l62.968,2.246L1956.499,1867.889z"/>
					<path style="fill:#FFFFFF;" d="M2024.328,1636.649c0,0,42.188,201.247,46.19,212.171
						c3.672,10.023-99.114,26.042-124.604,28.435c-2.135,0.201-5.4-1.121-6.435-1.666c-7.411-0.407,16.711-234.483,16.711-234.483
						l2.589,0.048L2024.328,1636.649z"/>
					
						<linearGradient id="SVGID_00000098915898512578438410000010740755602759477941_" gradientUnits="userSpaceOnUse" x1="-205.1487" y1="1658.0496" x2="-297.0295" y2="2044.9167" gradientTransform="matrix(-1 0 0 1 1755.9615 0)">
						<stop  offset="0" style="stop-color:#AA80F9"/>
						<stop  offset="0.9964" style="stop-color:#6165D7"/>
					</linearGradient>
					<path style="fill:url(#SVGID_00000098915898512578438410000010740755602759477941_);" d="M2023.464,1636.648
						c0,0,47.193,208.776,51.095,219.981c3.876,11.132-117.561,20.861-128.39,20.595c-7.043-0.749,12.264-235.976,12.264-235.976
						L2023.464,1636.648z"/>
				</g>
			</g>
			
				<linearGradient id="SVGID_00000147933355725561012150000007714495698288245425_" gradientUnits="userSpaceOnUse" x1="1396.6545" y1="1818.5941" x2="1509.7017" y2="1818.5941">
				<stop  offset="0" style="stop-color:#FFC444"/>
				<stop  offset="0.9964" style="stop-color:#F36F56"/>
			</linearGradient>
			<path style="fill:url(#SVGID_00000147933355725561012150000007714495698288245425_);" d="M1396.674,1810.813
				c0,0,10.68-13.477,36.038-15.218c25.359-1.741,65.706,15.109,73.672,27.178c7.966,12.069,0.365,19.449-9.882,18.918
				c-10.248-0.531-24.339-14.622-43.463-17.642C1433.915,1821.03,1395.668,1849.485,1396.674,1810.813z"/>
		</g>
		<g>
			
				<linearGradient id="SVGID_00000178199285278143453220000016333085427797773751_" gradientUnits="userSpaceOnUse" x1="2399.4041" y1="642.9316" x2="2745.8813" y2="1338.2279">
				<stop  offset="0" style="stop-color:#FFC444"/>
				<stop  offset="0.9964" style="stop-color:#F36F56"/>
			</linearGradient>
			<path style="fill:url(#SVGID_00000178199285278143453220000016333085427797773751_);" d="M2945.729,1268.019
				c0-120.151-110.829-213.948-242.834-209.656c-75.175,2.444-140.58,36.334-181.42,86.361c-0.005-0.015-0.01-0.029-0.015-0.044
				c-0.253,0.311-0.49,0.634-0.742,0.946c-0.706,0.875-1.388,1.767-2.08,2.652c-1.261,1.614-2.504,3.239-3.716,4.885
				c-0.715,0.973-1.419,1.952-2.118,2.936c-1.165,1.642-2.3,3.302-3.416,4.975c-0.638,0.958-1.283,1.91-1.904,2.877
				c-1.243,1.933-2.44,3.891-3.615,5.861c-0.427,0.713-0.873,1.414-1.29,2.132c-1.55,2.671-3.037,5.375-4.46,8.11
				c-0.378,0.725-0.723,1.467-1.092,2.197c-1.036,2.052-2.048,4.115-3.012,6.201c-0.473,1.023-0.92,2.056-1.375,3.087
				c-0.815,1.847-1.605,3.703-2.363,5.574c-0.44,1.087-0.872,2.175-1.293,3.27c-0.737,1.92-1.436,3.855-2.113,5.8
				c-0.354,1.017-0.72,2.029-1.058,3.053c-0.806,2.447-1.554,4.916-2.263,7.399c-0.147,0.518-0.318,1.028-0.462,1.548
				c-0.826,2.996-1.573,6.02-2.255,9.064c-0.201,0.896-0.366,1.803-0.553,2.704c-0.456,2.184-0.887,4.374-1.268,6.581
				c-0.192,1.124-0.363,2.253-0.536,3.382c-0.314,2.042-0.595,4.091-0.843,6.151c-0.139,1.156-0.275,2.311-0.393,3.472
				c-0.221,2.172-0.39,4.356-0.537,6.547c-0.068,1.019-0.154,2.033-0.207,3.057c-0.162,3.201-0.262,6.416-0.262,9.653
				c0,77.102,46.696,145.113,116.703,181.528c6.438,3.349,13.077,6.433,19.899,9.236c3.416,1.403,6.877,2.736,10.384,3.995
				c24.642,8.853,51.465,14.1,79.674,14.924l0,0l0,0c0.001,0,0.001,0,0.001,0c3.887,0.114,7.753,0.132,11.601,0.076
				c1.3-0.019,2.583-0.091,3.879-0.129c2.544-0.074,5.091-0.149,7.617-0.296c1.545-0.089,3.073-0.229,4.611-0.345
				c2.257-0.171,4.514-0.342,6.753-0.57c1.641-0.167,3.268-0.375,4.899-0.572c2.118-0.256,4.234-0.519,6.335-0.826
				c1.678-0.245,3.343-0.521,5.01-0.798c2.033-0.338,4.061-0.689,6.076-1.074c1.687-0.322,3.365-0.664,5.039-1.019
				c1.973-0.418,3.936-0.857,5.891-1.32c1.676-0.396,3.347-0.803,5.009-1.231c1.933-0.499,3.85-1.027,5.762-1.568
				c1.646-0.466,3.291-0.932,4.92-1.429c0.602-0.184,1.218-0.34,1.817-0.528c-0.014-0.015-0.026-0.029-0.04-0.044
				C2879.404,1438.201,2945.729,1360.649,2945.729,1268.019z"/>
			
				<linearGradient id="SVGID_00000047046821698449725270000016499500434813331336_" gradientUnits="userSpaceOnUse" x1="2603.1567" y1="1099.624" x2="2939.6921" y2="1723.7974">
				<stop  offset="0" style="stop-color:#FFC444"/>
				<stop  offset="0.9964" style="stop-color:#F36F56"/>
			</linearGradient>
			<path style="fill:url(#SVGID_00000047046821698449725270000016499500434813331336_);" d="M2927.589,1268.049
				c0,119.842-110.264,213.772-241.608,209.935c-126.451-3.694-225.554-97.284-225.554-209.163
				c0-111.878,99.103-205.796,225.554-209.908C2817.325,1054.642,2927.589,1148.207,2927.589,1268.049z"/>
			<path style="fill:#FFFFFF;" d="M2670.873,1144.91l-35.38,65.098l-71.39,8.57c-10.295,1.236-15.168,14.078-8.248,21.775
				l48.212,53.625l-16.439,73.805c-2.417,10.852,8.106,19.837,17.835,15.169l67.17-32.229l65.19,39.565
				c9.676,5.872,21.588-2.089,20.113-13.459l-9.988-76.955l56.475-51.437c8.264-7.526,4.273-21.189-6.709-23.104l-74.135-12.93
				l-29.716-67.113C2689.593,1135.644,2676.021,1135.439,2670.873,1144.91z"/>
			<g style="opacity:0.2;">
				
					<linearGradient id="SVGID_00000010296317311405644960000011186480148615185039_" gradientUnits="userSpaceOnUse" x1="2510.7366" y1="1141.1046" x2="2837.6711" y2="1797.1838">
					<stop  offset="0" style="stop-color:#FFC444"/>
					<stop  offset="0.9964" style="stop-color:#F36F56"/>
				</linearGradient>
				<path style="fill:url(#SVGID_00000010296317311405644960000011186480148615185039_);" d="M2743.103,1425.831
					c-28.501-62.748,0.314-120.73-38.169-160.975c-38.655-40.425-88.234-2.637-140.787-34.986
					c-20.098-12.371-42.302-36.041-58.711-84.863c-28.306,34.749-45.007,77.6-45.007,123.813
					c0,111.879,99.103,205.469,225.553,209.163c29.647,0.866,58.25-3.267,84.795-11.606
					C2757.66,1452.71,2749.006,1438.827,2743.103,1425.831z"/>
			</g>
		</g>
		<g>
			
				<linearGradient id="SVGID_00000060738169778790460830000007938253215834771852_" gradientUnits="userSpaceOnUse" x1="2261.0735" y1="776.6568" x2="2495.0911" y2="831.9365">
				<stop  offset="0" style="stop-color:#311944"/>
				<stop  offset="1" style="stop-color:#893976"/>
			</linearGradient>
			<path style="fill:url(#SVGID_00000060738169778790460830000007938253215834771852_);" d="M2416.095,689.999
				c77.07,2.365,141.798,49.42,154.412,108.985c0.016,0.078,0.032,0.156,0.048,0.234c0.683,3.26,1.208,6.557,1.573,9.888
				c0.024,0.22,0.051,0.439,0.073,0.659c0.159,1.556,0.283,3.119,0.371,4.689c0.016,0.285,0.027,0.57,0.041,0.855
				c0.077,1.604,0.128,3.212,0.128,4.83c0,69.219-70.646,121.675-156.646,117.224c-2.288-0.119-4.561-0.284-6.823-0.48
				c-0.221-0.019-0.444-0.035-0.665-0.055c-2.141-0.193-4.268-0.426-6.384-0.686c-0.329-0.041-0.659-0.079-0.988-0.121
				c-2.048-0.262-4.082-0.559-6.105-0.885c-0.382-0.061-0.762-0.123-1.143-0.186c-1.985-0.331-3.957-0.691-5.915-1.08
				c-0.397-0.079-0.792-0.162-1.188-0.243c-1.948-0.401-3.886-0.824-5.806-1.282c-0.372-0.089-0.741-0.183-1.112-0.274
				c-1.908-0.466-3.805-0.954-5.683-1.475c-0.337-0.094-0.671-0.194-1.007-0.289c-1.691-0.48-3.369-0.982-5.034-1.506
				c-0.422-0.133-0.848-0.26-1.269-0.395c-1.69-0.544-3.361-1.118-5.023-1.706c-0.359-0.126-0.727-0.24-1.084-0.368
				c0.005-0.005,0.009-0.008,0.013-0.013c-57.167-20.621-97.359-67.03-97.359-118.93
				C2263.52,739.971,2331.337,687.397,2416.095,689.999z"/>
			<g>
				
					<linearGradient id="SVGID_00000166645030818285562160000013725652681256199817_" gradientUnits="userSpaceOnUse" x1="-2714.4368" y1="713.1192" x2="-2513.8115" y2="1085.2198" gradientTransform="matrix(-1 0 0 1 -258.321 0)">
					<stop  offset="0.0036" style="stop-color:#E38DDD"/>
					<stop  offset="1" style="stop-color:#9571F6"/>
				</linearGradient>
				<path style="fill:url(#SVGID_00000166645030818285562160000013725652681256199817_);" d="M2247.203,807.391
					c0,67.42,67.817,125.585,152.575,129.973c85.999,4.451,156.646-48.005,156.646-117.224c0-69.219-70.646-127.5-156.646-130.14
					C2315.02,687.397,2247.203,739.971,2247.203,807.391z"/>
				<path style="fill:#FFFFFF;" d="M2344.745,786.185c0,19.796,23.048,66.877,39.326,97.671
					c6.781,12.826,24.646,13.689,31.455,1.487c16.412-29.413,39.805-74.854,39.805-94.837c0-30.837-24.937-56.691-55.553-57.743
					C2369.321,731.717,2344.745,755.637,2344.745,786.185z M2370.166,787.178c0-16.437,13.239-29.279,29.612-28.681
					c16.418,0.6,29.762,14.48,29.762,31c0,16.52-13.344,29.358-29.762,28.675C2383.405,817.491,2370.166,803.615,2370.166,787.178z"
					/>
				<g style="opacity:0.3;">
					
						<linearGradient id="SVGID_00000142141285554601700150000008972884073212012966_" gradientUnits="userSpaceOnUse" x1="-2773.2415" y1="737.7041" x2="-2576.6387" y2="1132.2385" gradientTransform="matrix(-1 0 0 1 -258.321 0)">
						<stop  offset="0" style="stop-color:#FF9085"/>
						<stop  offset="1" style="stop-color:#FB6FBB"/>
					</linearGradient>
					<path style="fill:url(#SVGID_00000142141285554601700150000008972884073212012966_);" d="M2362.365,904.023
						c18.559-35.556-0.203-70.453,24.903-92.952c25.616-22.956,59.071,0.731,95.289-17.45c14.063-7.059,29.737-21.036,41.414-50.648
						c20.336,21.775,32.451,48.574,32.451,77.166c0,69.219-70.646,121.675-156.646,117.224c-19.525-1.011-38.142-4.873-55.229-11.03
						C2352.968,919.018,2358.548,911.336,2362.365,904.023z"/>
				</g>
			</g>
		</g>
		<g>
			
				<linearGradient id="SVGID_00000011714451521044879480000009144928663853164163_" gradientUnits="userSpaceOnUse" x1="3881.5942" y1="964.4427" x2="4438.5835" y2="1551.621" gradientTransform="matrix(-1 0 0 1 5905.063 0)">
				<stop  offset="0" style="stop-color:#AA80F9"/>
				<stop  offset="0.9964" style="stop-color:#6165D7"/>
			</linearGradient>
			<polygon style="fill:url(#SVGID_00000011714451521044879480000009144928663853164163_);" points="1614.293,1165.39 
				2135.44,1176.547 2135.44,1074.997 1614.293,1065.65 			"/>
			<polygon style="fill:#FFFFFF;" points="2115.947,1157.566 2115.947,1093.212 1633.125,1084.245 1633.125,1147.536 			"/>
			
				<linearGradient id="SVGID_00000034064521933941648800000007688204676083074438_" gradientUnits="userSpaceOnUse" x1="4239.6157" y1="1040.2767" x2="4491.4229" y2="1305.7317" gradientTransform="matrix(-1 0 0 1 5905.063 0)">
				<stop  offset="0" style="stop-color:#AA80F9"/>
				<stop  offset="0.9964" style="stop-color:#6165D7"/>
			</linearGradient>
			<polygon style="fill:url(#SVGID_00000034064521933941648800000007688204676083074438_);" points="1514.279,1163.198 
				1715.009,1167.495 1644.434,1022.306 1514.279,1020.17 			"/>
			<polygon style="fill:#FFFFFF;" points="1685.07,1148.564 1632.514,1040.367 1532.979,1038.671 1532.979,1145.405 			"/>
			<polygon style="fill:#FFFFFF;" points="2066.675,1146.813 2101.666,1147.528 2101.666,1102.688 2066.675,1102.026 			"/>
			<polygon style="fill:#FFFFFF;" points="2019.392,1145.846 2054.269,1146.559 2054.269,1101.791 2019.392,1101.132 			"/>
			<polygon style="fill:#FFFFFF;" points="1972.261,1144.883 2007.026,1145.594 2007.025,1100.898 1972.261,1100.241 			"/>
			<polygon style="fill:#FFFFFF;" points="1925.283,1143.923 1959.935,1144.631 1959.935,1100.008 1925.283,1099.353 			"/>
			
				<linearGradient id="SVGID_00000003790713338292784500000004910188555159304603_" gradientUnits="userSpaceOnUse" x1="4104.0317" y1="1029.8263" x2="3872.3093" y2="1253.0369" gradientTransform="matrix(-1 0 0 1 5905.063 0)">
				<stop  offset="0" style="stop-color:#AA80F9"/>
				<stop  offset="0.9964" style="stop-color:#6165D7"/>
			</linearGradient>
			<polygon style="fill:url(#SVGID_00000003790713338292784500000004910188555159304603_);" points="1878.456,1142.966 
				1912.996,1143.672 1912.996,1099.121 1878.456,1098.468 			"/>
			
				<linearGradient id="SVGID_00000052104568017443000530000000106234548972178306_" gradientUnits="userSpaceOnUse" x1="4126.6646" y1="1052.1211" x2="3895.4839" y2="1274.8094" gradientTransform="matrix(-1 0 0 1 5905.063 0)">
				<stop  offset="0" style="stop-color:#AA80F9"/>
				<stop  offset="0.9964" style="stop-color:#6165D7"/>
			</linearGradient>
			<polygon style="fill:url(#SVGID_00000052104568017443000530000000106234548972178306_);" points="1831.78,1142.012 
				1866.209,1142.715 1866.209,1098.236 1831.78,1097.585 			"/>
			
				<linearGradient id="SVGID_00000032638399035928318280000017270412685570299578_" gradientUnits="userSpaceOnUse" x1="4149.2583" y1="1074.3103" x2="3918.6167" y2="1296.4797" gradientTransform="matrix(-1 0 0 1 5905.063 0)">
				<stop  offset="0" style="stop-color:#AA80F9"/>
				<stop  offset="0.9964" style="stop-color:#6165D7"/>
			</linearGradient>
			<polygon style="fill:url(#SVGID_00000032638399035928318280000017270412685570299578_);" points="1785.255,1141.061 
				1819.573,1141.762 1819.573,1097.355 1785.255,1096.706 			"/>
			
				<linearGradient id="SVGID_00000109714698236859536460000016078331881307847869_" gradientUnits="userSpaceOnUse" x1="4171.8145" y1="1096.3953" x2="3941.7109" y2="1318.0463" gradientTransform="matrix(-1 0 0 1 5905.063 0)">
				<stop  offset="0" style="stop-color:#AA80F9"/>
				<stop  offset="0.9964" style="stop-color:#6165D7"/>
			</linearGradient>
			<polygon style="fill:url(#SVGID_00000109714698236859536460000016078331881307847869_);" points="1738.879,1140.113 
				1773.087,1140.812 1773.087,1096.476 1738.879,1095.829 			"/>
		</g>
		<g>
			<g>
				
					<linearGradient id="SVGID_00000126295225704760305010000015773570250491445681_" gradientUnits="userSpaceOnUse" x1="1572.2272" y1="1820.3862" x2="1731.8229" y2="1820.3862" gradientTransform="matrix(0.9859 -0.1674 0.1674 0.9859 -600.5888 484.5983)">
					<stop  offset="0" style="stop-color:#FFC444"/>
					<stop  offset="0.9964" style="stop-color:#F36F56"/>
				</linearGradient>
				<path style="fill:url(#SVGID_00000126295225704760305010000015773570250491445681_);" d="M1407.815,1970.02
					c-0.573-0.456-1.375-0.492-1.987-0.088c-28.794,18.966-67.497,4.444-84.394-4.711c-17.769-9.629-71.589,25.237-71.589,25.237
					s14.801,79.466,16.025,63.56c1.224-15.906,35.643-39.193,74.304-15.669c33.129,20.157,60.907-46.829,68.178-66.412
					C1408.606,1971.25,1408.39,1970.476,1407.815,1970.02z"/>
				<path style="fill:#26264F;" d="M1290.289,2197.842c0.424,2.497-1.256,4.865-3.753,5.289l-1.13,0.192
					c-2.497,0.424-4.865-1.257-5.289-3.753l-35.311-207.964c-0.424-2.497,1.256-4.865,3.753-5.289l1.13-0.192
					c2.497-0.424,4.865,1.257,5.289,3.753L1290.289,2197.842z"/>
			</g>
			<g>
				
					<linearGradient id="SVGID_00000034083833790284086610000005547463371638561934_" gradientUnits="userSpaceOnUse" x1="650.5526" y1="1561.7682" x2="1592.2556" y2="2746.5508">
					<stop  offset="0" style="stop-color:#FFC444"/>
					<stop  offset="0.9964" style="stop-color:#F36F56"/>
				</linearGradient>
				<path style="fill:url(#SVGID_00000034083833790284086610000005547463371638561934_);" d="M911.723,1835.047
					c-1.444,5.401-3.988,10.009-8.083,12.795c-0.516,0.344-1.065,0.583-1.616,0.859c-12.588,6.294-16.543,6.276-17.54,33.448
					c-0.102,2.544-0.171,5.271-0.207,8.297c-0.584,35.561-22.355,6.315-22.355,6.315s-0.447-3.652-0.893-9.396
					c-1.102-14.341-2.27-41.79,3.095-58.368c1.753-5.399,4.197-9.664,7.532-11.935c5.71-3.886,11.349-6.777,16.543-8.77
					c0.824-0.311,1.651-0.207,2.442-0.482c1.789-0.62,3.542-1.067,5.159-1.067h0.035
					C910.314,1813.62,913.098,1825.211,911.723,1835.047z"/>
				
					<linearGradient id="SVGID_00000083787461866804488810000013184367140354080901_" gradientUnits="userSpaceOnUse" x1="-738.6251" y1="1928.764" x2="114.3458" y2="3001.9102" gradientTransform="matrix(-1 0 0 1 765.1998 0)">
					<stop  offset="0" style="stop-color:#FFC444"/>
					<stop  offset="0.9964" style="stop-color:#F36F56"/>
				</linearGradient>
				<path style="fill:url(#SVGID_00000083787461866804488810000013184367140354080901_);" d="M1305.453,2237.499
					c-9.264-4.134-17.755-7.74-27.264-12.016c-9.509-4.273-19.429-12.633-19.61-23.935c-0.262-16.201,11.913-53.145,31.961-49.353
					c20.048,3.792,10.735,30.136,3.029,42.059c-7.704,11.921,5.118,22.731,16.36,27.51
					C1308.492,2227.171,1306.91,2232.209,1305.453,2237.499z"/>
				
					<linearGradient id="SVGID_00000128468922728986199300000011189201314541366188_" gradientUnits="userSpaceOnUse" x1="-888.2188" y1="3564.0105" x2="291.3012" y2="1647.9347" gradientTransform="matrix(-1 0 0 1 765.1998 0)">
					<stop  offset="0" style="stop-color:#FF9085"/>
					<stop  offset="1" style="stop-color:#FB6FBB"/>
				</linearGradient>
				<path style="fill:url(#SVGID_00000128468922728986199300000011189201314541366188_);" d="M1299.567,2212.343
					c-1.206,9.11-6.425,16.792-6.659,24.803c19.9,31.183,79.667,54.471,57.899,106.079c-31.46,74.588-112.344,95.488-221.544,90.486
					c-29.932-1.371-178.24-22.957-215.744-105.603c-32.948-72.598,0.883-128.857,22.559-216.551
					c16.758-67.804-10.356-163.773-39.71-230.593c-18.37,1.055-32.847,4.574-50.971,12.248
					c29.506,102.867-10.924,156.37-58.839,229.697c-44.172,67.602-61.012,125.056-67.632,175.525
					c-8.203,62.514,4.312,81.585,3.074,130.002c-1.141,44.682-8.469,144.329-13.308,173.176
					c-16.998,101.365-37.952,275.241-7.876,351.091c25.341,63.911,31.402,76.093,68.129,97.996
					c73.453,43.805,199.038-14.262,289.041-7.45c31.299,2.371,55.604,27.922,99.391-4.411
					c25.76-19.021,35.254-140.492,27.419-194.41c-6.691-46.064-34.579-163.021,5.494-210.439
					c35.136-41.578,68.72-34.238,136.664-62.85c44.439-18.714,154.01-98.349,165.757-164.405
					c8.51-47.835-35.989-117.6-44.069-125.706C1391.981,2224.183,1362.778,2221.182,1299.567,2212.343z"/>
				<g>
					
						<linearGradient id="SVGID_00000170267421096449550490000006291873930413341865_" gradientUnits="userSpaceOnUse" x1="-239.8793" y1="2368.8293" x2="-223.2118" y2="2570.1233" gradientTransform="matrix(-1 0 0 1 765.1998 0)">
						<stop  offset="0" style="stop-color:#FFC444"/>
						<stop  offset="0.9964" style="stop-color:#F36F56"/>
					</linearGradient>
					<path style="fill:url(#SVGID_00000170267421096449550490000006291873930413341865_);" d="M1018.56,2344.506
						c3.239-10.627-9.322-30.134-11.218-32.546c-7.94-10.101-9.916-12.336-17.495-16.478c-2.573-1.404-4.108-1.423-5.423-1.9
						c-1.315-0.477-0.406-0.391-0.892-0.26c-5.15,1.401-11.547-1.488-16.091,3.119c-14.509,14.711-1.674,53.834,2.214,71.469
						c0.15,0.684-0.157,3.33,0.185,4.716s-0.505,4.052,0.077,5.642c2.642,7.208-10.429,11.829-11.751,11.259
						c-6.788-2.921-34.669-4.054-30.162,4.602c10.593,20.343,59.365,31.497,71.809,35.115c15.395,4.475,77.569,19.748,75.471,3.45
						c-0.791-6.139-40.639-21.317-52.188-24.762c-2.594-0.774-12.256-7.833-13.282-13.671c-1.389-7.908-6.883-16.536-9.075-24.78
						C1009.579,2364.692,1016.171,2352.337,1018.56,2344.506z"/>
					<path style="fill:#26264F;" d="M995.947,2279.156c1.083,7.732,2.655,21.646-3.005,29.47c-0.729,1.008-2.767,4.127-3.287,5.842
						c-0.071,0.234-0.363,1.122-0.353,1.664c0.157,7.05,12.001,13.129,11.152,18.193c-0.849,5.066-9.415,0.518-10.141,4.228
						c-0.727,3.71,6.896,4.228,6.266,7.558c-0.63,3.332-5.294,1.821-7.022,5.041c-0.86,1.606-0.772,4.884-0.931,7.343
						c-0.092,1.391-0.84,5.683-1.395,6.937c-2.695,6.094-10.343,13.594-17.127,10.928c-1.889-0.744-0.671-2.48-1.866-4.123
						c-1.195-1.642-1.434-2.822-3.732-5.036c-3.278-3.158-12.452-6.492-16.596-8.177c-7.676-3.121-14.772-8.239-18.83-13.596
						c-1.445-1.907-1.03-1.584-1.251-2.01c-4.406-8.525-7.786-21.125-4.566-29.382c5.393-13.83,21.82-18.89,29.597-29.478
						c8.97-12.216-6.53-36.481,6.93-42.595C973.252,2235.848,993.943,2264.86,995.947,2279.156z"/>
					
						<linearGradient id="SVGID_00000144316118183814414350000011942535757266981773_" gradientUnits="userSpaceOnUse" x1="2830.9248" y1="2180.2432" x2="2846.605" y2="2369.6118" gradientTransform="matrix(-0.8865 0.4628 0.4628 0.8865 2513.0125 -861.8964)">
						<stop  offset="0" style="stop-color:#FFC444"/>
						<stop  offset="0.9964" style="stop-color:#F36F56"/>
					</linearGradient>
					<path style="fill:url(#SVGID_00000144316118183814414350000011942535757266981773_);" d="M995.394,2332.778
						c-3.392-2.397-8.216,2.186-6.818,7.093c1.397,4.907,6.829,10.311,12.091,7.289
						C1005.929,2344.136,999.958,2336.005,995.394,2332.778z"/>
				</g>
				<path style="opacity:0.5;fill:#FFFFFF;" d="M901.56,2898.719c53.908-25.82,124.938,40.664,146.689,13.66
					c24.73-30.702-63.133-135.355-54.062-212.696c5.29-45.123,48.287-135.458,106.738-151.599
					c60.928-16.826,112.419,17.695,166.241-11.84c28.846-15.829,25.143-44.093,51.868-66.661
					c45.748-38.633,101.573-30.94,143.987-69.049c15.242-13.692,19.425-47.566,17.364-68.791
					c10.95,21.181,12.211,47.81,10.874,71.16c-4.611,80.521-122.144,145.52-164.964,167.103
					c-65.463,32.997-101.341,21.343-136.275,63.58c-39.841,48.168-11.104,165.452-5.109,210.977
					c7.02,53.286-1.55,175.035-27.439,194.443c-44.013,32.991-68.279,5.004-99.428,4.26
					c-89.562-2.136-216.761,43.076-288.557,10.799c-12.536-5.636-20.867-16.311-29.966-26.117
					c25.003,1.651,64.055-9.462,79.541-24.102C854.851,2970.018,860.566,2918.353,901.56,2898.719z"/>
			</g>
			<g>
				<g>
					
						<linearGradient id="SVGID_00000122000406405721454040000011906340065798893714_" gradientUnits="userSpaceOnUse" x1="2575.0522" y1="1821.614" x2="4142.8057" y2="1878.4167">
						<stop  offset="0" style="stop-color:#893976"/>
						<stop  offset="1" style="stop-color:#311944"/>
					</linearGradient>
					<path style="fill:url(#SVGID_00000122000406405721454040000011906340065798893714_);" d="M2809.34,1857.748l-26.692-23.584
						c-5.171-4.569-8.003-11.198-7.747-18.094c0.373-10.042-0.207-24.746-5.856-32.461c-9.101-12.431-43.3-2.309-44.837,0
						c-6.727,10.1-9.129,27.538,11.137,33.984c20.266,6.447,25.466,17.135,25.466,17.135l32.064,45.294L2809.34,1857.748z"/>
					
						<linearGradient id="SVGID_00000153707204151081623460000013224245257233215935_" gradientUnits="userSpaceOnUse" x1="2561.2588" y1="2202.3057" x2="4129.0107" y2="2259.1082">
						<stop  offset="0" style="stop-color:#893976"/>
						<stop  offset="1" style="stop-color:#311944"/>
					</linearGradient>
					<path style="fill:url(#SVGID_00000153707204151081623460000013224245257233215935_);" d="M2426.993,2245.63l30.081-12.688
						c0,0,22.564-8.977,22.564-26.128c0-24.583-19.628-60.091-35.713-56.624c-16.084,3.466-16.951,31.966-3.085,47.613
						c13.865,15.648-18.635,30.49-18.635,30.49L2426.993,2245.63z"/>
					
						<linearGradient id="SVGID_00000116954501735460564300000005129490251732896676_" gradientUnits="userSpaceOnUse" x1="2218.0605" y1="2498.4822" x2="3102.6755" y2="2498.4822">
						<stop  offset="0" style="stop-color:#AA80F9"/>
						<stop  offset="0.9964" style="stop-color:#6165D7"/>
					</linearGradient>
					<path style="fill:url(#SVGID_00000116954501735460564300000005129490251732896676_);" d="M2433.325,2218.502
						c2.872,9.067,5.744,18.133,8.616,27.199c-20.773,15.913-77.924,63.4-71.075,114.338
						c9.901,73.622,147.119,107.007,234.029,106.83c23.823-0.047,178.555-0.36,251.227-111.38
						c63.839-97.524,24.299-219.283-8.314-319.712c-25.215-77.649-60.042-136.022-85.198-172.75
						c14.4-12.229,28.799-24.458,43.199-36.687c52.215,31.628,149.67,101.322,212.606,226.471
						c58.021,115.378,61.353,227.479,60.735,270.072c-0.766,52.76-8.586,67.254-9.895,143.585
						c-1.208,70.44,4.488,114.302,13.171,196.241c30.511,287.92,23.039,339.488,0.695,390.737
						c-18.828,43.182-35.047,80.381-74.485,102.733c-78.877,44.702-144.916-29.893-316.834-16.159
						c-59.789,4.777-80.988,16.129-105.533-1.069c-14.437-10.117-40.98-37.784-32.353-217.228
						c7.372-153.305,29.674-194.01-2.311-238.027c-28.044-38.598-56.867-23.372-143.277-67.016
						c-56.519-28.546-178.659-90.242-189.497-191.808c-7.847-73.549,46.567-131.492,55.463-140.967
						C2336.673,2217.481,2419.919,2218.169,2433.325,2218.502z"/>
					<g>
						
							<linearGradient id="SVGID_00000168082377466797423550000017872619074231556265_" gradientUnits="userSpaceOnUse" x1="2554.6082" y1="2385.8606" x2="4122.3594" y2="2442.6633">
							<stop  offset="0" style="stop-color:#893976"/>
							<stop  offset="1" style="stop-color:#311944"/>
						</linearGradient>
						<path style="fill:url(#SVGID_00000168082377466797423550000017872619074231556265_);" d="M2742.313,2368.029
							c-1.015-19.136,11.559-33.829,14.311-36.986c11.527-13.213,14.075-14.798,18.55-16.532l6.156-2.123
							c0,0,0.342-0.055,0.696-0.098c3.748-0.458,15.656,1.835,17.936,2.885c7.287,3.351,8.446,36.361-3.765,79.922
							c-0.06,1.751-0.134,3.515-0.221,5.29c-0.129,2.611-0.205,4.633-0.266,6.33c-0.277,7.694,6.533,13.741,14.144,12.58
							c39.066-5.959,33.663,3.456,32.334,6.469c-3.123,7.08-39.297,27.038-82.85,37.761c-54.048,12.6-88.037,11.093-83.46,2.841
							c1.725-3.11,28.542-17.102,60.243-27.579c7.12-2.353,12.814-7.892,15.127-15.026c3.133-9.666,9.202-23.073,10.639-27.127
							C2759.156,2394.337,2743.06,2382.127,2742.313,2368.029z"/>
						<path style="fill:#26264F;" d="M2768.274,2296.308c-3.018,13.667,0.147,29.697,2.899,32.775
							c0.356,0.398,2.317,2.815,3.735,6.513c0.194,0.504,0.335,1.074,0.417,1.789c1.061,9.277-14.894,16.337-13.117,20.783
							c1.289,3.225,11.427,1.572,11.992,4.234c0.533,2.504-8.251,5.477-7.677,8.462c0.432,2.254,5.61,1.442,7.905,5.261
							c1.144,1.903,0.426,3.047,0.936,8.194c0.289,2.911,0.877,6.157,1.479,8.024c2.922,9.078,15.633,15.005,18.924,12.373
							c0.916-0.734,0.471-1.624,1.875-4.461c0,0,1.302-2.629,3.958-5.412c3.796-3.974,11.208-5.762,19.03-9.103
							c14.489-6.185,19.596-13.081,21.192-15.439c0.569-0.84,0.95-1.485,1.225-1.949c5.5-9.34,8.832-24.124,6.345-34.231
							c-4.166-16.934-22.891-13.536-33.504-31.769c-12.246-21.035,2.71-42.681-5.464-47.275
							C2801.412,2250.011,2773.854,2271.035,2768.274,2296.308z"/>
						
							<linearGradient id="SVGID_00000058574670148010648460000012269557933123079590_" gradientUnits="userSpaceOnUse" x1="2555.6838" y1="2356.1448" x2="4123.438" y2="2412.9475">
							<stop  offset="0" style="stop-color:#893976"/>
							<stop  offset="1" style="stop-color:#311944"/>
						</linearGradient>
						<path style="fill:url(#SVGID_00000058574670148010648460000012269557933123079590_);" d="M2767.838,2356.059
							c4.378-3.848,9.292,1.794,7.991,7.751c-1.3,5.958-8.454,10.852-13.784,8.422
							C2756.715,2369.805,2761.945,2361.24,2767.838,2356.059z"/>
					</g>
					
						<linearGradient id="SVGID_00000008861987874254297800000014977239653829373591_" gradientUnits="userSpaceOnUse" x1="2218.0613" y1="2758.3845" x2="3042.5188" y2="2758.3845">
						<stop  offset="0" style="stop-color:#AA80F9"/>
						<stop  offset="0.9964" style="stop-color:#6165D7"/>
					</linearGradient>
					<path style="opacity:0.2;fill:url(#SVGID_00000008861987874254297800000014977239653829373591_);" d="M2864.616,2980.162
						c-68.293-30.598-143.416,41.061-166.077,16.946c-25.765-27.42,77.968-113.011,67.786-230.473
						c-5.94-68.526-50.967-151.546-118.626-176.245c-70.524-25.744-125.84,26.399-183.024-13.558
						c-30.651-21.417-19.252-39.538-54.229-74.564c-59.877-59.961-124.154-37.772-159.297-77.955
						c-12.627-14.439-22.262-37.846-18.705-78.168c-9.905,22.336-16.755,49.274-13.613,78.728
						c10.838,101.565,132.978,163.261,189.497,191.807c86.41,43.645,115.233,28.418,143.277,67.016
						c31.983,44.017,9.683,84.723,2.312,238.028c-8.628,179.443,17.916,207.111,32.352,217.227
						c24.545,17.198,45.745,5.846,105.533,1.069c171.917-13.734,237.957,60.862,316.834,16.159
						c13.773-7.805,24.673-17.456,33.882-28.507c-43.989-0.352-71.621-12.852-89.781-28.885
						C2910.77,3061.735,2916.545,3003.428,2864.616,2980.162z"/>
				</g>
			</g>
			<g>
				
					<linearGradient id="SVGID_00000139261204525102616960000015702092640013466032_" gradientUnits="userSpaceOnUse" x1="1647.123" y1="2104.0713" x2="1665.0363" y2="2208.5188">
					<stop  offset="0" style="stop-color:#FFC444"/>
					<stop  offset="0.9964" style="stop-color:#F36F56"/>
				</linearGradient>
				<path style="fill:url(#SVGID_00000139261204525102616960000015702092640013466032_);" d="M1615.63,2145.571
					c5.991-4.809,13.924-12.664,18.472-24.349c4.875-12.523,1.443-18.1,7.557-25.923c7.753-9.92,23.614-14.187,34.495-9.341
					c2.294,1.022,5.086,2.447,6.845,5.417c4.839,8.167-5.9,22.314-14.472,29.846c-6.451,5.669-9.116,5.25-15.953,10.076
					c-6.673,4.709-15.075,12.829-21.83,27.707L1615.63,2145.571z"/>
				
					<linearGradient id="SVGID_00000095298186713123500940000018184930162825747856_" gradientUnits="userSpaceOnUse" x1="-316.7984" y1="2485.1611" x2="-298.8843" y2="2589.6135" gradientTransform="matrix(-0.9207 0.3902 0.3902 0.9207 667.8599 -113.3621)">
					<stop  offset="0" style="stop-color:#FFC444"/>
					<stop  offset="0.9964" style="stop-color:#F36F56"/>
				</linearGradient>
				<path style="fill:url(#SVGID_00000095298186713123500940000018184930162825747856_);" d="M1974.436,2077.033
					c-7.393-2.091-17.761-6.228-26.508-15.212c-9.375-9.63-8.391-16.102-17.072-20.919c-11.009-6.109-27.278-3.849-35.405,4.858
					c-1.714,1.836-3.728,4.239-4.189,7.658c-1.268,9.408,14.14,18.244,24.971,21.835c8.152,2.703,10.442,1.278,18.619,3.052
					c7.982,1.732,18.886,5.93,30.912,16.993L1974.436,2077.033z"/>
				
					<linearGradient id="SVGID_00000049905362932591926480000017893049545963289791_" gradientUnits="userSpaceOnUse" x1="59.5673" y1="3143.9656" x2="2969.4207" y2="4799.1899" gradientTransform="matrix(-0.9612 0.2758 0.2758 0.9612 555.5568 -63.5757)">
					<stop  offset="0" style="stop-color:#FFC444"/>
					<stop  offset="0.9964" style="stop-color:#F36F56"/>
				</linearGradient>
				<path style="fill:url(#SVGID_00000049905362932591926480000017893049545963289791_);" d="M1940.147,2088.67
					c-4.765,22.687,19.761,42.87,37.454,62.687c35.491,39.752,72.641,110.682,59.002,171.555
					c-7.45,33.251-31.332,69.206-65.055,86.246c-36.297,18.341-58.04,1.655-95.796,23.435c-2.785,1.606-50.532,29.914-51.919,68.115
					c-1.71,47.128,67.579,97.264,126.89,101.101c108.477,7.018,239.182-137.238,233.092-280.383
					c-6.63-155.835-174.073-279.528-222.245-258.558C1953.985,2066.171,1942.829,2075.902,1940.147,2088.67z"/>
				
					<linearGradient id="SVGID_00000019658641880000579010000012457121009317493174_" gradientUnits="userSpaceOnUse" x1="1290.4536" y1="2414.4929" x2="4200.3091" y2="4069.7185">
					<stop  offset="0" style="stop-color:#FFC444"/>
					<stop  offset="0.9964" style="stop-color:#F36F56"/>
				</linearGradient>
				<path style="fill:url(#SVGID_00000019658641880000579010000012457121009317493174_);" d="M1870.311,2440.917
					c-69.222,11.888-121.923,24.263-145.452,60.517c-24.852,38.295,14.661,67.121,25.404,151.138
					c16.451,128.631-57.506,176.683-36.227,306.201c3.473,21.135,8.743,39.951,14.417,56.016
					c9.977,28.248,29.332,52.024,54.694,67.97c19.017,11.957,42.138,23.986,69.27,33.479
					c70.192,24.554,104.816,10.28,199.254,15.676c154.469,8.826,177.598,53.627,247.385,26.078
					c70.532-27.844,121.581-103.079,106.622-135.229c-8.96-19.252-37.221-7.231-77.752-30.868
					c-52.236-30.464-43.463-72.043-85.843-107.711c-60.876-51.232-119.436,0.506-171.503-44.042
					c-52.668-45.067-58.956-154.656-36.569-219.895c14.623-42.613,14.895-88.953,25.746-132.676
					c0.904-3.633,1.613-9.427-0.645-15.998c-8.633-25.129-54.616-29.953-89.375-33.274
					C1916.724,2433.232,1876.004,2439.936,1870.311,2440.917z"/>
				
					<linearGradient id="SVGID_00000028297208841257212920000004685494686443872155_" gradientUnits="userSpaceOnUse" x1="4403.6108" y1="3151.7805" x2="4722.396" y2="3807.3118" gradientTransform="matrix(0.9781 -0.2085 0.2085 0.9781 -3305.7224 366.1276)">
					<stop  offset="0" style="stop-color:#FF9085"/>
					<stop  offset="1" style="stop-color:#FB6FBB"/>
				</linearGradient>
				<path style="opacity:0.3;fill:url(#SVGID_00000028297208841257212920000004685494686443872155_);" d="M2290.952,3109.21
					c-21.387-14.251-9.804-54.653-41.479-76.101c-29.399-19.906-52.328,6.128-95.656-7.154
					c-55.572-17.038-52.666-70.54-105.921-87.617c-38.296-12.279-49.849,12.165-105.086,13.221
					c-55.142,1.056-127.43-21.701-173.205-80.155c-19.45-24.838-30.318-51.336-36.232-75.833
					c-14.746,47.635-30.757,93.685-19.336,163.201c4.622,28.134,12.432,52.159,20.134,71.052
					c7.186,17.627,19.313,32.768,34.938,43.641c21.272,14.803,49.101,30.803,83.309,42.769
					c70.19,24.555,104.816,10.282,199.254,15.678c154.469,8.826,177.598,53.627,247.385,26.078
					c45.077-17.794,82.096-54.924,99.111-87.815C2337.118,3114.583,2306.473,3119.553,2290.952,3109.21z"/>
				
					<linearGradient id="SVGID_00000155130583272120399900000006003942751965894829_" gradientUnits="userSpaceOnUse" x1="-1995.2742" y1="2453.509" x2="-2068.8965" y2="2572.604" gradientTransform="matrix(-0.9994 0.0352 0.0352 0.9994 -265.165 -10.261)">
					<stop  offset="0" style="stop-color:#FFC444"/>
					<stop  offset="0.9964" style="stop-color:#F36F56"/>
				</linearGradient>
				<path style="fill:url(#SVGID_00000155130583272120399900000006003942751965894829_);" d="M1830.328,2321.116
					c0,0-19.076,35.809-20.279,60.937c-1.204,25.126,27.154,23.3,27.154,23.3l-1.065,15.851
					c-0.908,13.532-9.692,25.262-22.42,29.942l-11.196,4.117c0,0,73.035,15.637,112.918-12.54l-11.493-1.125
					c-16.274-1.592-29.17-14.435-30.831-30.704l-0.693-6.783C1872.423,2404.111,1885.092,2325.786,1830.328,2321.116z"/>
				
					<linearGradient id="SVGID_00000161602139028887035010000018206259654046711981_" gradientUnits="userSpaceOnUse" x1="1387.8309" y1="2243.3054" x2="4297.686" y2="3898.5305">
					<stop  offset="0" style="stop-color:#FFC444"/>
					<stop  offset="0.9964" style="stop-color:#F36F56"/>
				</linearGradient>
				<path style="fill:url(#SVGID_00000161602139028887035010000018206259654046711981_);" d="M1650.474,2152.708
					c10.838,20.492-7.171,46.657-18.713,70.586c-23.151,47.998-39.299,126.423-9.399,181.174
					c16.331,29.906,49.203,57.88,86.318,64.959c39.948,7.619,56.245-14.416,98.544-3.893c3.12,0.775,56.822,14.817,68.69,51.153
					c14.642,44.828-38.132,112.13-94.085,132.176c-102.334,36.664-267.755-65.951-301.379-205.223
					c-36.606-151.62,90.229-316.696,142.317-309.823C1630.968,2134.898,1644.375,2141.174,1650.474,2152.708z"/>
				
					<linearGradient id="SVGID_00000129926997766414868030000017744757872414685834_" gradientUnits="userSpaceOnUse" x1="-2404.8774" y1="2957.3513" x2="-2105.1873" y2="2316.988" gradientTransform="matrix(-0.9994 0.0352 0.0352 0.9994 -265.165 -10.261)">
					<stop  offset="0" style="stop-color:#444B8C"/>
					<stop  offset="0.9964" style="stop-color:#26264F"/>
				</linearGradient>
				<path style="fill:url(#SVGID_00000129926997766414868030000017744757872414685834_);" d="M1841.739,2356.726
					c3.775-0.313,6.894-5.102,9.478-3.678c2.714,1.49,2.413,8.469,0.055,13.367c-1.935,4.015-5.088,6.284-6.845,7.344
					c2.915,4.034,6.63,10.304,8.175,18.511c3.421,18.154-6.23,32.754-10.24,41.296c-18.09,38.515,10.051,99.404,40.937,130.153
					c25.103,24.995,36.814,14.944,51.799,35.358c13.863,18.886-1.167,99.347,3.993,136.882
					c9.307,67.69,102.136,112.402,157.63,126.576c16.294,4.161,131.76,31.706,211.097-43.442
					c44.208-41.872,66.557-105.243,63.611-151.154c-0.915-14.262-5.236-68.406-49.352-112.594
					c-7.004-7.013-48.467-48.448-104.498-48.95c-29.677-0.267-35.66,10.19-58.356,3.725c-31.073-8.852-50.212-37.101-62.086-54.624
					c-21.84-32.235-12.965-39.116-28.676-54.969c-30.789-31.059-66.911-6.668-99.795-34.08
					c-32.416-27.019-12.86-63.673-44.149-87.06c-32.28-24.118-94.025-15.698-107.186,13.025
					C1806.016,2317.092,1830.167,2357.681,1841.739,2356.726z"/>
			</g>
			<g>
				
					<linearGradient id="SVGID_00000062892241067143883930000008712359536882678686_" gradientUnits="userSpaceOnUse" x1="2045.7395" y1="1122.4211" x2="2205.3398" y2="1122.4211" gradientTransform="matrix(0.8965 -0.443 0.443 0.8965 -1496.2754 1610.3986)">
					<stop  offset="0" style="stop-color:#FFC444"/>
					<stop  offset="0.9964" style="stop-color:#F36F56"/>
				</linearGradient>
				<path style="fill:url(#SVGID_00000062892241067143883930000008712359536882678686_);" d="M968.911,1622.18
					c-0.68-0.273-1.458-0.078-1.929,0.485c-22.149,26.424-63.391,23.606-82.203,19.679c-19.783-4.131-61.351,44.699-61.351,44.699
					s36.959,71.889,33.572,56.299c-3.387-15.589,22.913-47.765,66.695-36.311c37.517,9.815,44.927-62.323,46.28-83.169
					C970.021,1623.132,969.592,1622.452,968.911,1622.18z"/>
				<path style="fill:#26264F;" d="M921.622,1874.13c1.122,2.271,0.191,5.021-2.08,6.143l-1.028,0.508
					c-2.271,1.122-5.021,0.191-6.143-2.08l-93.442-189.115c-1.122-2.271-0.191-5.021,2.08-6.143l1.028-0.508
					c2.271-1.122,5.021-0.191,6.143,2.08L921.622,1874.13z"/>
			</g>
			
				<linearGradient id="SVGID_00000003098174538162156560000007037774303573500596_" gradientUnits="userSpaceOnUse" x1="886.9291" y1="1827.202" x2="912.0356" y2="1827.202">
				<stop  offset="0" style="stop-color:#FFC444"/>
				<stop  offset="0.9964" style="stop-color:#F36F56"/>
			</linearGradient>
			<path style="fill:url(#SVGID_00000003098174538162156560000007037774303573500596_);" d="M911.723,1835.047
				c-0.893,6.741-3.715,11.866-6.088,12.759c-0.653,0.242-1.306,0.139-1.995-0.068c-5.364-1.755-11.487-16.939-15.648-29.561
				c-0.275-0.791-0.482-1.539-0.62-2.227c-0.893-3.783-0.344-6.169,0.826-7.647c0.447-0.62,1.031-0.695,1.651-1.004
				c2.579-1.479,5.95-0.557,5.95-0.557h0.035C910.314,1813.62,913.098,1825.211,911.723,1835.047z"/>
			
				<linearGradient id="SVGID_00000029768426281215890410000015902329542643363232_" gradientUnits="userSpaceOnUse" x1="864.043" y1="1821.9004" x2="891.5549" y2="1821.9004">
				<stop  offset="0" style="stop-color:#FFC444"/>
				<stop  offset="0.9964" style="stop-color:#F36F56"/>
			</linearGradient>
			<path style="fill:url(#SVGID_00000029768426281215890410000015902329542643363232_);" d="M864.136,1828.951
				c-1.115-1.838,7.934-24.958,17.837-23.908c9.903,1.05,12.139,3.474,6.664,9.007
				C883.162,1819.583,880.477,1855.889,864.136,1828.951z"/>
		</g>
		<g>
			
				<linearGradient id="SVGID_00000078731259705252609480000003382248019051486858_" gradientUnits="userSpaceOnUse" x1="2371.5872" y1="1786.0918" x2="2643.6763" y2="2290.7363">
				<stop  offset="0" style="stop-color:#311944"/>
				<stop  offset="1" style="stop-color:#893976"/>
			</linearGradient>
			<path style="fill:url(#SVGID_00000078731259705252609480000003382248019051486858_);" d="M2644.503,1924.568
				c0,89.519-87.151,162.304-196.272,162.574c-110.945,0.275-202.253-74.28-202.253-166.527c0-92.247,91.309-164.99,202.253-162.514
				C2557.352,1760.536,2644.503,1835.05,2644.503,1924.568z"/>
			
				<linearGradient id="SVGID_00000007399907616001009930000013979882449367109259_" gradientUnits="userSpaceOnUse" x1="2371.5872" y1="1786.0918" x2="2643.6763" y2="2290.7363">
				<stop  offset="0" style="stop-color:#311944"/>
				<stop  offset="1" style="stop-color:#893976"/>
			</linearGradient>
			<path style="fill:url(#SVGID_00000007399907616001009930000013979882449367109259_);" d="M2644.503,1924.568
				c0,89.519-87.151,162.304-196.272,162.574c-110.945,0.275-202.253-74.28-202.253-166.527c0-92.247,91.309-164.99,202.253-162.514
				C2557.352,1760.536,2644.503,1835.05,2644.503,1924.568z"/>
			
				<linearGradient id="SVGID_00000145037447802440754820000006323401562098718134_" gradientUnits="userSpaceOnUse" x1="3031.8853" y1="2238.4893" x2="3362.0718" y2="2850.8872" gradientTransform="matrix(0.9879 -0.1549 0.1549 0.9879 -1001.1066 -10.3045)">
				<stop  offset="0" style="stop-color:#311944"/>
				<stop  offset="1" style="stop-color:#893976"/>
			</linearGradient>
			<path style="fill:url(#SVGID_00000145037447802440754820000006323401562098718134_);" d="M2532.297,2061.907
				c15.474,5.273,31.119,10.755,46.927,16.454c23.014,8.298,45.477,16.734,67.383,25.269c-0.327-14.248-2.878-41.049-18.399-69.769
				c-11.868-21.963-26.694-36.487-36.769-44.891L2532.297,2061.907z"/>
			
				<linearGradient id="SVGID_00000081632526556824355270000004183053682390495897_" gradientUnits="userSpaceOnUse" x1="2385.616" y1="1771.2072" x2="2657.7051" y2="2275.8518">
				<stop  offset="0" style="stop-color:#FF9085"/>
				<stop  offset="1" style="stop-color:#FB6FBB"/>
			</linearGradient>
			<path style="fill:url(#SVGID_00000081632526556824355270000004183053682390495897_);" d="M2658.532,1909.684
				c0,89.519-87.151,162.304-196.272,162.574c-110.945,0.275-202.254-74.28-202.254-166.527s91.309-164.99,202.254-162.514
				C2571.381,1745.651,2658.532,1820.165,2658.532,1909.684z"/>
			
				<linearGradient id="SVGID_00000085938718233766143180000004308448097274252209_" gradientUnits="userSpaceOnUse" x1="2385.616" y1="1771.2072" x2="2657.7051" y2="2275.8518">
				<stop  offset="0" style="stop-color:#FF9085"/>
				<stop  offset="1" style="stop-color:#FB6FBB"/>
			</linearGradient>
			<path style="fill:url(#SVGID_00000085938718233766143180000004308448097274252209_);" d="M2658.532,1909.684
				c0,89.519-87.151,162.304-196.272,162.574c-110.945,0.275-202.254-74.28-202.254-166.527s91.309-164.99,202.254-162.514
				C2571.381,1745.651,2658.532,1820.165,2658.532,1909.684z"/>
			
				<linearGradient id="SVGID_00000109711114285644212320000009323133420591690411_" gradientUnits="userSpaceOnUse" x1="3052.9707" y1="2239.2102" x2="3370.196" y2="2827.5691" gradientTransform="matrix(0.9879 -0.1549 0.1549 0.9879 -1001.1066 -10.3045)">
				<stop  offset="0" style="stop-color:#FF9085"/>
				<stop  offset="1" style="stop-color:#FB6FBB"/>
			</linearGradient>
			<path style="fill:url(#SVGID_00000109711114285644212320000009323133420591690411_);" d="M2546.325,2047.023
				c17.438,8.729,35.552,17.425,54.337,26.021c15.579,7.128,30.905,13.86,45.944,20.219c-0.546-15.375-2.95-36.778-11.069-60.955
				c-8.678-25.842-20.69-45.338-30.07-58.223L2546.325,2047.023z"/>
			<g>
				<path style="fill:#FFFFFF;" d="M2573.438,1864.895L2573.438,1864.895c-8.33-23.075-29.052-39.672-53.377-40.067
					c-31.86-0.517-57.8,26.933-57.8,61.314c0-34.381-26.042-62.676-58.308-63.2c-24.847-0.403-46.159,15.767-54.763,38.979l-0.001,0
					c-32.772,83.237,113.072,161.48,113.072,161.48S2604.968,1947.186,2573.438,1864.895z"/>
			</g>
			<g style="opacity:0.2;">
				
					<linearGradient id="SVGID_00000159451278652463576540000015278254236655268542_" gradientUnits="userSpaceOnUse" x1="2310.2344" y1="1799.9791" x2="2577.9331" y2="2337.186">
					<stop  offset="0" style="stop-color:#FF9085"/>
					<stop  offset="1" style="stop-color:#FB6FBB"/>
				</linearGradient>
				<path style="fill:url(#SVGID_00000159451278652463576540000015278254236655268542_);" d="M2510.454,2030.384
					c-23.902-48.512,0.261-93.66-32.074-125.272c-33.013-32.274-76.158-3.026-122.906-29.689
					c-18.161-10.358-38.412-30.045-53.504-70.292c-26.293,27.613-41.962,62.495-41.962,100.599
					c0,92.247,91.309,166.802,202.254,166.527c25.157-0.062,49.133-3.975,71.129-11.038
					C2522.552,2050.941,2515.368,2040.36,2510.454,2030.384z"/>
			</g>
		</g>
	</g>
</g>
</svg>
